<?xml version="1.0" encoding="utf-8"?>
<!-- Generator: Adobe Illustrator 22.0.0, SVG Export Plug-In . SVG Version: 6.00 Build 0)  -->
<svg version="1.1" id="Logotype" xmlns="http://www.w3.org/2000/svg" xmlns:xlink="http://www.w3.org/1999/xlink" x="0px" y="0px"
	 viewBox="0 0 660 190" style="enable-background:new 0 0 660 190;" xml:space="preserve">
<style type="text/css">
	.st0{fill:#FFFFFF;}
	.st1{fill:url(#SVGID_1_);}
	.st2{opacity:0.3;fill:url(#SVGID_2_);}
	.st3{opacity:0.3;fill:url(#SVGID_3_);}
	.st4{fill:url(#SVGID_4_);}
</style>
<g>
	<path class="st0" d="M75.9,153.5c-21.1,0-37-9.8-44.1-27.2c-2.8-6.5-3-10.1-3.3-32.7V75H9.9V45.3h18.6v-27h31v27h22.4V75H59.5v21.6
		c-0.8,22.9,3.3,27.9,22.4,27.9v28.9H75.9z"/>
	<path class="st0" d="M153.1,153.3c-17.4,0-23.7-1.3-33.7-7c-16.9-9.8-26.9-27.4-26.9-47.1c0-19.4,9.8-36.5,26.4-46.3
		c10.1-6,17.4-7.6,33.7-7.6h9.3v29.5h-7.8c-8.3,0-13.6,1-18.1,3.5c-7.6,4.3-12.1,12.3-12.1,20.9c0,8.8,4.8,17.1,12.1,21.1
		c4.5,2.5,9.6,3.5,17.9,3.5h8.1v29.5H153.1z"/>
	<path class="st0" d="M244.2,153.3V93.4c0-6-0.5-9.6-2.3-13.1c-2.5-5.5-8.8-9.3-15.4-9.3s-13.1,4-15.6,9.8c-1.5,3-2,7-2,12.3v60.2
		h-31V9.3h31v39.5c8.3-4.8,14.6-6.5,22.7-6.5c14.3,0,27.9,7,35.7,18.6c5.8,8.8,7.6,16.1,7.6,32.7v59.7H244.2z"/>
	<path class="st0" d="M403.1,100.2c0,30.7-25.9,56.4-57.1,56.4c-31.7,0-57.4-25.7-57.4-57.1c0-31.7,25.7-57.4,57.6-57.4
		C377.7,42,403.1,68,403.1,100.2z M319.5,99.4c0,15.4,11.6,27.2,26.4,27.2c14.3,0,26.2-12.3,26.2-26.9c0-15.1-11.8-27.4-26.2-27.4
		C331.1,72.2,319.5,84.3,319.5,99.4z"/>
	<path class="st0" d="M587.6,153.3c-8.1,0-12.1-0.8-15.9-2.5c-5-3-8.6-8.8-8.6-15.1c0-6.5,2-10.8,10.6-20.6l35.7-41.3h-42.8V45.3
		h54.6c12.3,0,15.1,0.5,20.1,3.8c5.3,3.3,8.6,9.3,8.6,15.6c0,5.8-2,10.1-8.6,17.6L605,124.6h44.1v28.7H587.6z"/>
	<g>
		<g>
			<linearGradient id="SVGID_1_" gradientUnits="userSpaceOnUse" x1="434.3985" y1="106.6099" x2="507.918" y2="192.9915">
				<stop  offset="0" style="stop-color:#26CAEA"/>
				<stop  offset="3.816684e-02" style="stop-color:#27CCE1"/>
				<stop  offset="9.906113e-02" style="stop-color:#29D2CA"/>
				<stop  offset="0.175" style="stop-color:#2CDCA4"/>
				<stop  offset="0.2624" style="stop-color:#30E970"/>
				<stop  offset="0.2892" style="stop-color:#32EE5F"/>
				<stop  offset="0.7027" style="stop-color:#EAF26B"/>
				<stop  offset="0.7541" style="stop-color:#ECF374"/>
				<stop  offset="0.838" style="stop-color:#F1F48C"/>
				<stop  offset="0.9433" style="stop-color:#FAF7B4"/>
				<stop  offset="1" style="stop-color:#FFF8CC"/>
			</linearGradient>
			<path class="st1" d="M476.7,100.6l-38.9,74.2c-1.5,2.9,1.1,6.3,4.3,5.5l35.8-7.1l2.6-32.3c0.1-1.6,2.4-1.6,2.6,0l2.6,32.3l35,7.1
				l1,0.2c3.2,0.7,5.8-2.6,4.3-5.5l-39-74.5C484.7,96.5,478.8,96.5,476.7,100.6z"/>
			
				<radialGradient id="SVGID_2_" cx="413.4385" cy="37.7158" r="295.8993" gradientTransform="matrix(-0.7314 0.682 -0.2829 -0.3034 726.4792 -232.8055)" gradientUnits="userSpaceOnUse">
				<stop  offset="0" style="stop-color:#26CAEA"/>
				<stop  offset="1.634428e-02" style="stop-color:#27CCE1"/>
				<stop  offset="0.1252" style="stop-color:#2CDBA9"/>
				<stop  offset="0.219" style="stop-color:#2FE581"/>
				<stop  offset="0.2929" style="stop-color:#31EC68"/>
				<stop  offset="0.3378" style="stop-color:#32EE5F"/>
				<stop  offset="0.3787" style="stop-color:#39EE5F"/>
				<stop  offset="0.4397" style="stop-color:#4EEF61"/>
				<stop  offset="0.5132" style="stop-color:#6FEF63"/>
				<stop  offset="0.5965" style="stop-color:#9DF066"/>
				<stop  offset="0.6869" style="stop-color:#D7F26A"/>
				<stop  offset="0.7135" style="stop-color:#EAF26B"/>
				<stop  offset="0.762" style="stop-color:#ECF272"/>
				<stop  offset="0.8344" style="stop-color:#F0F487"/>
				<stop  offset="0.9215" style="stop-color:#F7F6A8"/>
				<stop  offset="1" style="stop-color:#FFF8CC"/>
			</radialGradient>
			<path class="st2" d="M482.2,37.6c4.6,0,9,0.5,13.3,1.5c-7.6-3.4-16-5.3-24.9-5.3c-34.5,0-62.3,27.7-62.3,62
				c0,23.7,13.5,44.4,33.4,54.7l1.4-2.8c-14.1-11.3-23.2-28.7-23.2-48.1C419.9,65.4,447.6,37.6,482.2,37.6z"/>
			<linearGradient id="SVGID_3_" gradientUnits="userSpaceOnUse" x1="472.8724" y1="39.958" x2="570.811" y2="154.4016">
				<stop  offset="0" style="stop-color:#26CAEA"/>
				<stop  offset="0.3676" style="stop-color:#32EE5F"/>
				<stop  offset="0.7676" style="stop-color:#EAF26B"/>
				<stop  offset="1" style="stop-color:#FFF8CC"/>
			</linearGradient>
			<path class="st3" d="M555.2,104.3c0-30.1-20.6-55.2-48.2-61.4c21.6,9.7,36.6,31.7,36.6,57.5c0,18.9-9.1,36.1-23.2,47.3l4.6,8.7
				C543,145.7,555.2,126.2,555.2,104.3z"/>
			
				<radialGradient id="SVGID_4_" cx="432.643" cy="48.9082" r="359.7997" gradientTransform="matrix(-0.7314 0.682 -0.272 -0.2917 762.3622 -231.8868)" gradientUnits="userSpaceOnUse">
				<stop  offset="0" style="stop-color:#26CAEA"/>
				<stop  offset="4.800563e-02" style="stop-color:#27CDDF"/>
				<stop  offset="0.1311" style="stop-color:#29D4C3"/>
				<stop  offset="0.2394" style="stop-color:#2DE095"/>
				<stop  offset="0.3514" style="stop-color:#32EE5F"/>
				<stop  offset="0.7703" style="stop-color:#EAF26B"/>
				<stop  offset="0.9245" style="stop-color:#F8F6AB"/>
				<stop  offset="1" style="stop-color:#FFF8CC"/>
			</radialGradient>
			<path class="st4" d="M482.2,37.6c-34.5,0-62.3,27.7-62.3,62c0,19.4,9.1,36.8,23.2,48.1l15.9-30.3c-3.6-4.9-5.6-11-5.6-17.8
				c0-16.3,12.5-29.4,28.6-29.4c15.5,0,28.3,13.3,28.3,29.6c0,6.4-2.1,12.5-5.7,17.3l16,30.5c14.1-11.2,23.2-28.4,23.2-47.3
				C543.6,65.6,516.2,37.6,482.2,37.6z"/>
		</g>
	</g>
</g>
</svg>
